<svg xmlns="http://www.w3.org/2000/svg" viewBox="0 0 193.66 358.79">
  <defs>
    <style>
      .cls-1 {
        fill: none;
        stroke: #000;
        stroke-miterlimit: 10;
        stroke-width: 0.28px;
      }

      .cls-2 {
        fill: red;
      }
    </style>
  </defs>
  <title>panel</title>
  <g id="UI">
    <ellipse class="cls-1" cx="111.33" cy="195.89" rx="9.87" ry="9.92"/>
    <ellipse class="cls-1" cx="175.33" cy="195.89" rx="9.87" ry="9.92"/>
    <ellipse class="cls-1" cx="175.33" cy="277.89" rx="9.87" ry="9.92"/>
    <ellipse class="cls-1" cx="111.33" cy="277.89" rx="9.87" ry="9.92"/>
    <circle class="cls-1" cx="144.33" cy="81.77" r="4.82"/>
    <ellipse class="cls-1" cx="143.85" cy="135.12" rx="8.46" ry="8.5"/>
    <circle class="cls-1" cx="71.32" cy="70.39" r="4.25"/>
    <circle class="cls-1" cx="168.32" cy="135.39" r="4.25"/>
    <rect class="cls-1" x="0.14" y="57.27" width="57" height="186"/>
    <ellipse class="cls-1" cx="107.85" cy="82.12" rx="8.46" ry="8.5"/>
    <ellipse class="cls-1" cx="178.85" cy="82.12" rx="8.46" ry="8.5"/>
  </g>
  <g id="Design">
    <rect class="cls-2" x="28.14" y="256.27" width="18" height="18"/>
    <rect class="cls-2" x="56.14" y="256.27" width="18" height="18"/>
    <rect class="cls-2" x="0.14" y="279.27" width="18" height="18"/>
    <rect class="cls-2" x="56.14" y="279.27" width="18" height="18"/>
    <rect class="cls-2" x="0.14" y="302.27" width="18" height="18"/>
    <rect class="cls-2" x="28.14" y="302.27" width="18" height="18"/>
    <rect class="cls-2" x="28.14" y="325.27" width="18" height="18"/>
    <rect class="cls-2" x="56.14" y="325.27" width="18" height="18"/>
  </g>
  <g id="Mounting_Holes" data-name="Mounting Holes">
    <circle class="cls-1" cx="6.27" cy="4.39" r="4.25"/>
    <circle class="cls-1" cx="189.27" cy="4.39" r="4.25"/>
    <circle class="cls-1" cx="6.27" cy="354.39" r="4.25"/>
    <circle class="cls-1" cx="189.27" cy="354.39" r="4.25"/>
  </g>
</svg>
